<?xml version="1.0" encoding="UTF-8" standalone="no"?>
<!-- Created with Inkscape (http://www.inkscape.org/) -->

<svg
   width="81.604065mm"
   height="82.186775mm"
   viewBox="0 0 81.604065 82.186775"
   version="1.1"
   id="svg5"
   inkscape:version="1.1.2 (b8e25be833, 2022-02-05)"
   sodipodi:docname="Moje logo - final.svg"
   inkscape:export-filename="C:\Users\janrg\OneDrive\Pictures\My pictures &amp; icones\Inscape\Vlastní tvorba\Moje logo2.png"
   inkscape:export-xdpi="96"
   inkscape:export-ydpi="96"
   xmlns:inkscape="http://www.inkscape.org/namespaces/inkscape"
   xmlns:sodipodi="http://sodipodi.sourceforge.net/DTD/sodipodi-0.dtd"
   xmlns="http://www.w3.org/2000/svg"
   xmlns:svg="http://www.w3.org/2000/svg">
  <sodipodi:namedview
     id="namedview7"
     pagecolor="#ffffff"
     bordercolor="#999999"
     borderopacity="1"
     inkscape:pageshadow="0"
     inkscape:pageopacity="0"
     inkscape:pagecheckerboard="0"
     inkscape:document-units="mm"
     showgrid="false"
     inkscape:zoom="0.5"
     inkscape:cx="-9"
     inkscape:cy="154"
     inkscape:window-width="1920"
     inkscape:window-height="1017"
     inkscape:window-x="-8"
     inkscape:window-y="-8"
     inkscape:window-maximized="1"
     inkscape:current-layer="layer1" />
  <defs
     id="defs2" />
  <g
     inkscape:label="Vrstva 1"
     inkscape:groupmode="layer"
     id="layer1"
     style="display:inline"
     transform="translate(-64.197964,-107.40661)">
    <g
       id="g20458"
       inkscape:export-filename="C:\Users\janrg\OneDrive\Pictures\My pictures &amp; icones\Inscape\Vlastní tvorba\Moje logo2.svg"
       inkscape:export-xdpi="96"
       inkscape:export-ydpi="96" />
    <rect
       style="fill:#ff0000;fill-opacity:1;stroke:#000000;stroke-width:2.64817;stroke-linecap:round;stroke-linejoin:round;stroke-miterlimit:4;stroke-dasharray:none;stroke-opacity:1"
       id="rect78447"
       width="78.955894"
       height="79.538605"
       x="65.522049"
       y="108.7307"
       ry="39.477947"
       inkscape:export-filename="C:\Users\janrg\OneDrive\Pictures\My pictures &amp; icones\Inscape\Vlastní tvorba\Moje logo2.svg"
       inkscape:export-xdpi="96"
       inkscape:export-ydpi="96" />
    <g
       id="g9333"
       transform="translate(11.966263,4.6496)">
      <path
         id="path1942"
         style="color:#000000;fill:#000000;fill-opacity:1;fill-rule:nonzero;stroke:#000000;stroke-width:5;stroke-linecap:round;stroke-miterlimit:4;stroke-dasharray:none;stroke-opacity:1"
         d="m 92.07682,117.18299 a 1.6827101,1.6827101 0 0 0 -1.705317,1.65778 l -0.474906,34.70898 c -0.83324,-0.71846 -1.768157,-1.29541 -2.73833,-1.7234 -1.498531,-0.66108 -3.086314,-1.0369 -4.632793,-1.13068 -1.546476,-0.0938 -3.051865,0.0936 -4.384744,0.55501 -1.240242,0.42934 -2.431417,1.13137 -3.396691,2.04845 -0.661564,0.62852 -1.157856,1.27084 -1.509469,1.78749 -0.175807,0.25832 -0.314735,0.48497 -0.42013,0.67178 -0.0527,0.0934 -0.09579,0.17555 -0.136426,0.25787 -0.03553,0.072 -0.05577,0.0539 -0.124023,0.28215 -1.387193,3.32359 -0.811461,6.60857 0.868164,9.00876 1.698243,2.42681 4.375517,4.05435 7.226431,4.7656 2.850917,0.71125 5.965561,0.51373 8.466661,-1.12913 2.498723,-1.6413 4.126483,-4.7512 4.056593,-8.94674 -7e-5,-0.004 7e-5,-0.008 0,-0.0119 l 0.35553,-25.8625 c 1.41199,1.61534 3.19202,2.95996 5.172807,3.92896 3.042213,1.48822 7.256163,2.64354 9.836103,4.34753 1.28996,0.85199 2.07887,1.74313 2.36109,2.71508 0.28223,0.97195 0.18349,2.25804 -0.99994,4.27519 a 1.6781678,1.6781678 0 0 0 -0.003,0.002 c -3.02277,5.17603 -9.69889,7.68873 -13.11909,7.97058 a 1.678,1.678 0 0 0 -1.53324,1.81075 1.678,1.678 0 0 0 1.80867,1.5353 c 4.55114,-0.37504 11.92648,-3.09336 15.74013,-9.62112 l 0.003,-0.002 c 1.47977,-2.52332 1.91378,-4.88238 1.32602,-6.90656 -0.58796,-2.02485 -2.07141,-3.48189 -3.73414,-4.58008 -3.32548,-2.19641 -7.73009,-3.34666 -10.21127,-4.56044 -2.45989,-1.20337 -4.53788,-3.18318 -5.63066,-5.34387 -0.59353,-1.17355 -0.91582,-2.36991 -0.90175,-3.57859 h -0.005 l 0.0992,-7.22746 a 1.6827101,1.6827101 0 0 0 -1.65985,-1.70481 z m -10.412273,36.93107 c 1.336368,-0.003 2.828366,0.25362 4.120679,0.82373 2.162497,0.95399 3.738821,2.52341 3.986831,5.17332 0.0432,3.3186 -1.0405,5.01443 -2.523874,5.98878 -1.493252,0.98085 -3.649157,1.20483 -5.777423,0.67386 -2.128268,-0.53096 -4.137249,-1.80897 -5.261694,-3.41581 -1.124445,-1.60684 -1.512644,-3.43709 -0.484209,-5.82651 a 1.7005,1.7005 0 0 0 0.001,-0.003 c -0.0023,0.014 -0.002,0.0394 0.02894,-0.0574 -0.0082,0.0148 -0.01844,0.0341 -0.0217,0.0403 a 1.7005,1.7005 0 0 0 0.05581,-0.1571 c -0.01286,0.0456 -0.02595,0.0913 -0.03411,0.11679 0.0084,-0.0151 0.0105,-0.0191 0.02274,-0.0408 0.05502,-0.0975 0.14613,-0.25135 0.267685,-0.42995 0.243107,-0.35722 0.607578,-0.82051 1.042828,-1.23403 0.54424,-0.51706 1.419106,-1.04223 2.165761,-1.3007 0.654645,-0.22663 1.496348,-0.34966 2.410706,-0.3514 z"
         inkscape:export-filename="C:\Users\janrg\OneDrive\Pictures\My pictures &amp; icones\Inscape\Vlastní tvorba\Moje logo2.svg"
         inkscape:export-xdpi="96"
         inkscape:export-ydpi="96" />
      <rect
         style="fill:#000000;fill-opacity:1;stroke:none;stroke-width:4.54968;stroke-linecap:round;stroke-miterlimit:4;stroke-dasharray:none;stroke-opacity:1"
         id="rect9231"
         width="2.3977864"
         height="2.5330102"
         x="75.918877"
         y="155.47284" />
    </g>
    <g
       id="g9207"
       transform="translate(11.564732,23.5735)">
      <g
         id="g9342">
        <g
           id="g9337">
          <path
             id="path78449"
             style="color:#000000;fill:#ffffff;fill-opacity:1;fill-rule:nonzero;stroke:#ffffff;stroke-width:3;stroke-linecap:round;stroke-miterlimit:4;stroke-dasharray:none;stroke-opacity:1"
             d="m 92.478354,98.259083 a 1.6827101,1.6827101 0 0 0 -1.705326,1.65778 l -0.4749,34.708987 c -0.83325,-0.71846 -1.76816,-1.29541 -2.738337,-1.7234 -1.498531,-0.66108 -3.086314,-1.0369 -4.632793,-1.13069 -1.546476,-0.0938 -3.051865,0.0936 -4.384744,0.55501 -1.240242,0.42934 -2.431417,1.13137 -3.396691,2.04845 -0.661564,0.62852 -1.157856,1.27084 -1.509469,1.78749 -0.175807,0.25832 -0.314735,0.48497 -0.42013,0.67179 -0.0527,0.0934 -0.09579,0.17555 -0.136426,0.25787 -0.03553,0.072 -0.05577,0.0539 -0.124023,0.28215 -1.387193,3.32359 -0.811461,6.60856 0.868164,9.00876 1.698243,2.4268 4.375517,4.05435 7.226431,4.7656 2.850917,0.71124 5.965561,0.51372 8.466668,-1.12913 2.49873,-1.6413 4.126486,-4.7512 4.056596,-8.94674 -7e-5,-0.004 7e-5,-0.008 0,-0.0119 l 0.355529,-25.8625 c 1.411992,1.61534 3.192022,2.95996 5.172812,3.92896 3.042215,1.48822 7.256165,2.64354 9.836105,4.34753 1.28996,0.85199 2.07887,1.74313 2.36109,2.71508 0.28223,0.97195 0.18349,2.25804 -0.99994,4.27519 a 1.6781678,1.6781678 0 0 0 -0.003,0.002 c -3.02277,5.17603 -9.69889,7.68873 -13.119095,7.97057 a 1.678,1.678 0 0 0 -1.53324,1.81075 1.678,1.678 0 0 0 1.80867,1.5353 c 4.551145,-0.37504 11.926485,-3.09336 15.740135,-9.62112 l 0.003,-0.002 c 1.47977,-2.52332 1.91378,-4.88238 1.32602,-6.90656 -0.58796,-2.02484 -2.07141,-3.48189 -3.73414,-4.58008 -3.32548,-2.1964 -7.73009,-3.34666 -10.21127,-4.56044 -2.459895,-1.20336 -4.537885,-3.18318 -5.630665,-5.34386 -0.593532,-1.17355 -0.915822,-2.36992 -0.901752,-3.5786 h -0.005 l 0.0992,-7.227457 a 1.6827101,1.6827101 0 0 0 -1.659849,-1.70481 z M 82.066071,135.19016 c 1.336368,-0.003 2.828366,0.25361 4.120679,0.82372 2.162497,0.95399 3.738828,2.52342 3.986838,5.17333 0.0431,3.31859 -1.0405,5.01442 -2.523881,5.98878 -1.493252,0.98085 -3.649157,1.20482 -5.777423,0.67386 -2.128268,-0.53096 -4.137249,-1.80897 -5.261694,-3.41581 -1.124445,-1.60684 -1.512644,-3.43709 -0.484209,-5.82652 a 1.7005,1.7005 0 0 0 0.001,-0.003 c -0.0023,0.014 -0.002,0.0394 0.02894,-0.0574 -0.0082,0.0148 -0.01844,0.0341 -0.0217,0.0403 a 1.7005,1.7005 0 0 0 0.05581,-0.1571 c -0.01286,0.0456 -0.02595,0.0913 -0.03411,0.11679 0.0084,-0.0151 0.0105,-0.0191 0.02274,-0.0408 0.05502,-0.0975 0.14613,-0.25135 0.267685,-0.42995 0.243107,-0.35722 0.607578,-0.82051 1.042828,-1.23403 0.54424,-0.51706 1.419106,-1.04223 2.165761,-1.3007 0.654645,-0.22663 1.496348,-0.34966 2.410706,-0.3514 z"
             inkscape:export-filename="C:\Users\janrg\OneDrive\Pictures\My pictures &amp; icones\Inscape\Vlastní tvorba\Moje logo2.svg"
             inkscape:export-xdpi="96"
             inkscape:export-ydpi="96" />
          <rect
             style="fill:#ffffff;fill-opacity:1;stroke:none;stroke-width:2.72462;stroke-linecap:round;stroke-miterlimit:4;stroke-dasharray:none;stroke-opacity:1"
             id="rect8482"
             width="1.6577414"
             height="1.7149005"
             x="146.9566"
             y="55.805351"
             transform="rotate(39.929367)"
             ry="0" />
        </g>
      </g>
    </g>
    <path
       id="path78451"
       style="color:#000000;fill:#373737;fill-opacity:1;stroke:#000000;stroke-width:1;stroke-linecap:round;stroke-linejoin:round;stroke-miterlimit:4;stroke-dasharray:none;stroke-opacity:1"
       d="m 117.02163,119.44201 c -0.3037,-5.2e-4 -0.6086,0.01 -0.91313,0.0305 -2.43628,0.16391 -5.0228,0.97012 -7.31841,2.21692 -1.13483,0.61635 -2.20474,1.33805 -3.13108,2.17403 a 1.6827101,1.6827101 0 0 0 -1.65726,-1.58698 1.6827101,1.6827101 0 0 0 -1.70481,1.65829 l -0.55862,40.82594 a 1.7005,1.7005 0 0 0 -0.0413,0.37826 c 0.0586,3.3625 -1.03011,5.07408 -2.523361,6.05493 -1.493255,0.98085 -3.649158,1.20482 -5.777425,0.67386 -2.128269,-0.53095 -4.137249,-1.80949 -5.261694,-3.41633 -1.124446,-1.60683 -1.512644,-3.43657 -0.484209,-5.826 a 1.7005,1.7005 0 0 0 -0.890901,-2.23448 1.7005,1.7005 0 0 0 -1.300697,-0.0176 1.7005,1.7005 0 0 0 -0.933793,0.90795 c -1.446691,3.36119 -0.87607,6.69254 0.822172,9.11934 1.698243,2.4268 4.376035,4.05435 7.22695,4.7656 2.850915,0.71124 5.965559,0.51425 8.466668,-1.12861 2.49873,-1.6413 4.1265,-4.75172 4.0566,-8.94726 -7e-5,-0.004 7e-5,-0.008 0,-0.0119 l 0.35553,-25.86199 c 1.41197,1.61529 3.19155,2.95999 5.1723,3.92896 3.04221,1.48823 7.25616,2.64356 9.83609,4.34753 1.28997,0.852 2.07887,1.74313 2.36109,2.71508 0.28223,0.97195 0.1835,2.25805 -0.99993,4.2752 a 1.6781678,1.6781678 0 0 0 -0.002,0.002 c -3.02278,5.17603 -9.6989,7.68874 -13.1191,7.97058 a 1.678,1.678 0 0 0 -1.53324,1.81074 1.678,1.678 0 0 0 1.80867,1.5353 c 4.55114,-0.37504 11.92648,-3.09335 15.74013,-9.62111 l 0.002,-0.002 c 1.47977,-2.52332 1.91378,-4.88238 1.32602,-6.90656 -0.58796,-2.02483 -2.07141,-3.48189 -3.73414,-4.58008 -3.32548,-2.1964 -7.73009,-3.34666 -10.21127,-4.56044 -2.45989,-1.20336 -4.53788,-3.18318 -5.63066,-5.34386 -0.59353,-1.17355 -0.91582,-2.36992 -0.90175,-3.5786 0.0444,-0.96104 0.29193,-1.92873 0.78134,-2.89491 0.64201,-1.26742 2.15949,-2.65268 4.04317,-3.67574 1.88368,-1.02307 4.10556,-1.695 5.94124,-1.8185 1.83567,-0.12351 3.10118,0.32112 3.60391,0.93948 0.50274,0.61837 0.80572,1.87456 -0.34778,4.61729 a 1.6778349,1.6778349 0 0 0 0.89452,2.19728 1.6778349,1.6778349 0 0 0 2.19728,-0.89658 c 1.40083,-3.33083 1.38412,-6.15981 -0.14056,-8.03517 -1.33414,-1.6409 -3.39266,-2.1968 -5.51852,-2.20039 z"
       inkscape:export-filename="C:\Users\janrg\OneDrive\Pictures\My pictures &amp; icones\Inscape\Vlastní tvorba\Moje logo2.svg"
       inkscape:export-xdpi="96"
       inkscape:export-ydpi="96" />
  </g>
</svg>
